<svg width="85" height="54" viewBox="0 0 85 54" fill="none" xmlns="http://www.w3.org/2000/svg">
<rect x="7.45388" y="0.884789" width="76.5485" height="52.2955" rx="3.60005" fill="#F0F2F4" stroke="black" stroke-width="0.378953"/>
<path d="M7.45388 4.48484C7.45388 2.49659 9.06568 0.884789 11.0539 0.884789H80.4023C82.3906 0.884789 84.0024 2.49659 84.0024 4.48484V11.5364H7.45388V4.48484Z" fill="#D9DBE1" stroke="black" stroke-width="0.378953"/>
<ellipse cx="62.5915" cy="6.00072" rx="1.89476" ry="1.89476" fill="#66C454"/>
<ellipse cx="68.2756" cy="6.00072" rx="1.89476" ry="1.89476" fill="#F3BD4F"/>
<ellipse cx="73.96" cy="6.00072" rx="1.89476" ry="1.89476" fill="#EA695E"/>
<rect x="35.9727" y="17.1338" width="18.6301" height="6.57534" rx="1.51581" fill="white"/>
<rect x="58.9863" y="17.1338" width="18.6301" height="6.57534" rx="1.51581" fill="white"/>
<rect x="36.0647" y="28.3589" width="41.6848" height="7.2001" rx="1.51581" fill="white"/>
<rect x="36.0647" y="39.7275" width="41.6848" height="7.2001" rx="1.51581" fill="white"/>
<path d="M79.6443 40.296C79.6443 44.5864 76.1663 48.0645 71.8758 48.0645C67.5854 48.0645 64.1073 44.5864 64.1073 40.296C64.1073 36.0055 67.5854 32.5274 71.8758 32.5274C76.1663 32.5274 79.6443 36.0055 79.6443 40.296Z" fill="white" stroke="#FF3838" stroke-width="1.51581"/>
<path d="M78.3181 34.9905L66.5706 46.738" stroke="#FF3838" stroke-width="1.89476" stroke-miterlimit="6.40657"/>
<path d="M28.3013 26.4488C28.3013 30.9881 24.6214 34.668 20.0821 34.668C15.5428 34.668 11.8629 30.9881 11.8629 26.4488C11.8629 21.9095 15.5428 18.2296 20.0821 18.2296C24.6214 18.2296 28.3013 21.9095 28.3013 26.4488Z" stroke="#3681FD" stroke-width="4.38356"/>
<path d="M14.0548 31.3801L2 42.339" stroke="#3681FD" stroke-width="4.38356"/>
<circle cx="14.931" cy="28.9119" r="9.31507" transform="rotate(-76.6272 14.931 28.9119)" stroke="black" stroke-width="1.09589"/>
<path d="M20.4673 36.4235L27.0477 44.4121" stroke="black" stroke-width="1.09589"/>
</svg>
